<?xml version="1.0" encoding="UTF-8"?>
<svg id="_图层_2" data-name="图层 2" xmlns="http://www.w3.org/2000/svg" viewBox="0 0 51.26 61.03">
  <defs>
    <style>
      .cls-1 {
        fill-rule: evenodd;
      }

      .cls-1, .cls-2 {
        stroke-width: 0px;
      }
    </style>
  </defs>
  <g id="_图层_1-2" data-name="图层 1">
    <g>
      <polygon class="cls-1" points="19.98 23.59 17.88 22.18 20.72 26.34 22.62 28.06 24.7 31.62 25.63 31.81 26.57 31.62 28.65 28.06 30.55 26.34 33.38 22.18 31.28 23.59 29.67 22.94 26.12 27 25.63 27.09 25.14 27 21.59 22.94 19.98 23.59"/>
      <polygon class="cls-1" points="27.69 20.84 24.17 24.4 24.81 25.05 25.18 26.04 25.64 26.04 26.09 26.04 26.46 25.05 27.75 23.74 27.23 23.15 27.98 21.29 27.69 20.84"/>
      <polygon class="cls-1" points="23.78 20.54 23.29 21.3 24.04 23.15 23.52 23.75 23.85 24.08 27.7 20.18 27.73 19.92 29 18.06 27.9 15.59 23.48 20.05 23.78 20.54"/>
      <polygon class="cls-1" points="23.18 19.55 27.65 15.03 26.61 12.7 27.27 10.51 25.63 .05 23.99 10.51 24.65 12.7 22.26 18.06 23.18 19.55"/>
      <polygon class="cls-1" points="18.34 21.6 20.19 23 21.57 22.42 22.59 22.73 23.1 22.45 22.13 19.76 20.52 18.55 19.68 20.37 18.34 21.6"/>
      <polygon class="cls-1" points="17.8 16.29 16.86 12.55 16.47 13.63 16.73 17.82 17.31 19.36 17.31 20.02 17.07 20.64 18 21.26 19.25 19.93 19.93 18.55 20.48 16.57 16.91 8.17 16.45 8.9 18.25 15.74 17.8 16.29"/>
      <polygon class="cls-1" points="19.04 6.46 20.16 3.05 19.47 .19 17.05 7.33 17.76 9.09 19.04 6.46"/>
      <polygon class="cls-1" points="46.23 4.24 46.57 4.64 42.64 13.84 35.95 17.73 34.59 19.63 38.77 18.28 35.3 19.79 34.9 21 31.13 27.37 29.12 28.76 26.79 32.59 25.63 32.92 24.47 32.59 22.14 28.76 20.13 27.37 16.36 21 15.97 19.79 12.49 18.28 16.67 19.63 15.31 17.73 8.62 13.84 4.69 4.64 5.04 4.24 0 0 0 .31 2.82 3.25 2.8 4.09 8.21 16.76 11.43 17.87 11.55 18.55 13.34 21.01 12.87 23.37 15.8 29.89 16.66 30.37 19.54 30.22 23.4 34.01 23.18 33.03 24.05 33.78 25.63 33.89 27.21 33.78 28.09 33.03 27.87 34.01 31.73 30.22 34.6 30.37 35.47 29.89 38.39 23.37 37.93 21.01 39.71 18.55 39.83 17.87 43.05 16.76 48.46 4.09 48.45 3.25 51.26 .31 51.26 0 46.23 4.24"/>
      <polygon class="cls-1" points="4.71 16.48 2.16 13.34 .13 12.58 3.86 17.24 7.76 19.8 7.8 20.34 7.06 20.58 7.66 21.44 6.8 21.83 9.98 28.12 10.92 32.29 13.36 30.46 16.21 35.19 17.67 35.19 22.1 36.85 22.37 36.43 21.56 35.61 22.93 35.61 23.53 34.63 22.49 33.75 20.97 34.05 18.73 33.29 16.56 31 13.36 30.12 12.74 26.12 10.88 23 10.88 21.59 9.06 19.86 10.57 19.69 4.71 16.48"/>
      <polygon class="cls-1" points="27.25 34.87 27.38 34.56 25.63 34.38 23.88 34.56 24.01 34.87 25.63 35.59 27.25 34.87"/>
      <polygon class="cls-1" points="21.41 37.37 21.28 37.92 23.39 39.87 23.45 40.42 24.05 40.21 25.63 41.05 27.21 40.21 27.81 40.42 27.87 39.87 29.99 37.92 29.85 37.37 28.99 37.45 27.23 35.29 25.63 36 24.04 35.29 22.27 37.45 21.41 37.37"/>
      <polygon class="cls-1" points="27.87 40.64 27.3 41.35 25.63 41.77 23.96 41.35 23.4 40.64 22.9 40.58 20.61 38.09 20.87 37.15 18.46 37.81 12.19 41.05 8.32 38.59 7.41 38.46 7.95 38.8 10 40.52 13.86 44.02 19.59 41.69 21.01 45.94 23.4 47.95 22.26 45.33 22.89 42.68 23.05 43.65 25.63 44.57 28.21 43.65 28.37 42.68 29 45.33 27.87 47.95 30.25 45.94 31.67 41.69 37.4 44.02 43.31 38.8 43.86 38.46 42.94 38.59 39.07 41.05 32.8 37.81 30.39 37.15 30.65 38.09 28.36 40.58 27.87 40.64"/>
      <polygon class="cls-1" points="16.98 37.84 17.69 36.34 11.63 40.05 12.31 40.52 16.98 37.84"/>
      <polygon class="cls-1" points="7.66 43.17 10.51 41.55 9.94 41.02 4.99 43.96 6.42 44.02 7.66 43.17"/>
      <polygon class="cls-1" points="11.38 38.58 3.49 32.25 1.82 31.81 9.97 38.43 11.38 38.58"/>
      <polygon class="cls-1" points="22.96 49.09 21.96 47.24 22.07 48.4 21.9 48.77 19.36 44.62 18.37 44.25 20.06 47.22 20.78 50.5 18.17 54.21 18.95 54.32 23.2 51.31 22.59 50.5 22.96 49.09"/>
      <polygon class="cls-1" points="24.91 50.67 24.02 48.31 23.98 49.09 23.75 49.94 23.34 49.47 23.41 50.67 24.54 51.78 24.91 50.67"/>
      <polygon class="cls-1" points="25.05 48.4 24.62 48.83 25.05 49.79 25.05 48.4"/>
      <polygon class="cls-1" points="28.67 22.73 29.69 22.42 31.07 23 32.93 21.6 31.58 20.37 30.75 18.55 29.14 19.76 28.16 22.45 28.67 22.73"/>
      <polygon class="cls-1" points="32.01 19.93 33.26 21.26 34.19 20.64 33.95 20.02 33.95 19.36 34.54 17.82 34.79 13.63 34.4 12.55 33.46 16.29 33.02 15.74 34.81 8.9 34.36 8.17 30.78 16.57 31.33 18.55 32.01 19.93"/>
      <polygon class="cls-1" points="33.51 9.09 34.21 7.33 31.8 .19 31.1 3.05 32.22 6.46 33.51 9.09"/>
      <polygon class="cls-1" points="46.55 16.48 40.7 19.69 42.2 19.86 40.38 21.59 40.38 23 38.52 26.12 37.9 30.12 34.71 31 32.53 33.29 30.3 34.05 28.78 33.75 27.73 34.63 28.33 35.61 29.7 35.61 28.89 36.43 29.16 36.85 33.59 35.19 35.05 35.19 37.9 30.46 40.34 32.29 41.28 28.12 44.46 21.83 43.6 21.44 44.2 20.58 43.46 20.34 43.5 19.8 47.4 17.24 51.13 12.58 49.1 13.34 46.55 16.48"/>
      <polygon class="cls-1" points="39.63 40.05 33.57 36.34 34.28 37.84 38.95 40.52 39.63 40.05"/>
      <polygon class="cls-1" points="40.76 41.55 43.6 43.17 44.84 44.02 46.27 43.96 41.32 41.02 40.76 41.55"/>
      <polygon class="cls-1" points="39.88 38.58 41.3 38.43 49.44 31.81 47.77 32.25 39.88 38.58"/>
      <polygon class="cls-1" points="31.2 47.22 32.89 44.25 31.9 44.62 29.36 48.77 29.19 48.4 29.3 47.24 28.3 49.09 28.67 50.5 28.06 51.31 32.31 54.32 33.1 54.21 30.48 50.5 31.2 47.22"/>
      <polygon class="cls-1" points="27.28 49.09 27.24 48.31 26.35 50.67 26.73 51.78 27.85 50.67 27.93 49.47 27.52 49.94 27.28 49.09"/>
      <polygon class="cls-1" points="26.21 48.4 26.21 49.79 26.64 48.83 26.21 48.4"/>
      <rect class="cls-2" x="5.43" y="58.52" width="1.47" height="2.51"/>
      <rect class="cls-2" x="7.56" y="58.52" width=".84" height="2.51"/>
      <rect class="cls-2" x="26.74" y="58.52" width=".79" height="2.51"/>
      <rect class="cls-2" x="28.91" y="58.52" width=".79" height="2.51"/>
      <rect class="cls-2" x="9.73" y="58.52" width="2.12" height="2.51"/>
      <rect class="cls-2" x="23.91" y="58.52" width="2.12" height="2.51"/>
      <rect class="cls-2" x="30.34" y="58.52" width="2.12" height="2.51"/>
      <rect class="cls-2" x="40.31" y="58.52" width="2.12" height="2.51"/>
      <rect class="cls-2" x="43.06" y="58.52" width=".81" height="2.51"/>
      <rect class="cls-2" x="13.24" y="58.52" width="1.49" height="2.51"/>
      <rect class="cls-2" x="15.42" y="58.52" width="1.49" height="2.51"/>
      <rect class="cls-2" x="34.56" y="58.52" width="1.49" height="2.51"/>
      <rect class="cls-2" x="36.71" y="58.52" width="1.49" height="2.51"/>
      <rect class="cls-2" x="44.55" y="58.52" width="1.49" height="2.51"/>
      <rect class="cls-2" x="18.25" y="58.52" width="1.49" height="2.51"/>
      <rect class="cls-2" x="21.05" y="58.52" width="1.49" height="2.51"/>
    </g>
  </g>
</svg>