<?xml version="1.0" encoding="UTF-8"?>
<svg id="_图层_2" data-name="图层 2" xmlns="http://www.w3.org/2000/svg" viewBox="0 0 45.63 56.86">
  <defs>
    <style>
      .cls-1 {
        stroke-width: 0px;
      }
    </style>
  </defs>
  <g id="_图层_1-2" data-name="图层 1">
    <g>
      <path class="cls-1" d="m26,50.03v-4.62c.4-.06.8-.12,1.2-.2v2.52h1.33v-2.82c9.84-2.54,17.1-11.47,17.1-22.09C45.63,10.22,35.42,0,22.82,0S0,10.22,0,22.82c0,10.63,7.27,19.56,17.1,22.09v2.82h1.33v-2.52c.4.08.8.14,1.2.2v4.62h1.33v-4.47c.4.03.8.05,1.2.07v7.24h1.33v-7.24c.4-.01.8-.03,1.2-.07v4.47h1.33Zm1.2-11.87v5.72c-.4.08-.8.15-1.2.21v-20.56c4.45,1.37,7.69,5.51,7.69,10.4,0,3.9-2.07,7.33-5.16,9.25v-5.03h-1.33Zm-1.09-15.1h11.85c-.02,7.5-2.56,14.14-6.43,18.17,1.65-1.97,2.65-4.52,2.65-7.29,0-5.13-3.4-9.46-8.06-10.88Zm11.91,14.97c-2.34,2.34-5.12,4.07-8.16,5.12,4.99-3.74,8.4-11.33,8.42-20.09h6.04c-.06,5.65-2.29,10.96-6.3,14.97Zm0-30.42c4.01,4.01,6.23,9.31,6.3,14.97h-6.04c-.11-9.13-3.91-16.94-9.31-20.38,3.38,1.01,6.49,2.84,9.05,5.41Zm-30.42,0c2.57-2.57,5.67-4.4,9.05-5.41-5.4,3.43-9.2,11.25-9.31,20.38H1.31c.06-5.65,2.29-10.96,6.3-14.97Zm0,30.42c-4.01-4.01-6.23-9.31-6.3-14.97h6.04c.02,8.76,3.44,16.35,8.42,20.09-3.04-1.05-5.82-2.78-8.16-5.12Zm.06-14.97h11.85c-4.67,1.42-8.06,5.75-8.06,10.88,0,2.77,1,5.32,2.65,7.29-3.87-4.03-6.41-10.67-6.43-18.17Zm11.96,21.03c-.4-.06-.8-.13-1.2-.21v-5.72h-1.33v5.03c-3.1-1.92-5.16-5.35-5.16-9.25,0-4.89,3.24-9.03,7.69-10.4v20.56Zm2.53.22c-.4-.01-.8-.04-1.2-.07v-21.02c.39-.07.79-.12,1.2-.14v21.23Zm0-40.65v18.9h-1.2v-2.6h-1.33v2.6H7.67c.12-9.58,4.35-17.71,10.2-20.7,1.6-.37,3.26-.57,4.94-.57s3.34.19,4.94.57c5.85,2.98,10.09,11.11,10.2,20.7h-11.96v-2.6h-1.33v2.6h-1.2V3.67h-1.33Zm1.33,40.65v-21.23c.41.02.81.07,1.2.14v21.02c-.4.03-.8.06-1.2.07Z"/>
      <path class="cls-1" d="m10.5,52.84h-5.2s-.05.02-.05.05v.67s.02.05.05.05h2.21v3.2s.02.05.06.05h.66s.05-.02.05-.05v-3.2h2.21s.06-.02.06-.05v-.67s-.02-.05-.06-.05Z"/>
      <path class="cls-1" d="m20.27,52.84h-3.24c-.36,0-.7.09-1.01.27-.31.18-.55.42-.73.73-.18.31-.27.65-.27,1.01s.09.7.27,1.01c.18.31.42.55.73.73s.65.27,1.01.27h3.25s.04-.01.04-.04v-2.31s-.02-.05-.05-.05h-.67s-.05.02-.05.05v1.58h-2.52c-.34,0-.63-.12-.88-.37s-.37-.54-.37-.88c0-.23.06-.43.17-.62s.26-.34.45-.45.4-.17.62-.17h3.24s.05-.02.05-.05v-.67s-.02-.05-.05-.05Z"/>
      <path class="cls-1" d="m30.53,52.84h-3.24c-.36,0-.7.09-1.01.27-.31.18-.55.42-.73.73-.18.31-.27.65-.27,1.01s.09.7.27,1.01c.18.31.42.55.73.73s.65.27,1.01.27h3.24s.05-.02.05-.05v-.67s-.02-.05-.05-.05h-3.24c-.34,0-.63-.12-.88-.37s-.37-.54-.37-.88c0-.23.06-.43.17-.62s.26-.34.45-.45.4-.17.62-.17h3.24s.05-.02.05-.05v-.67s-.02-.05-.05-.05Z"/>
      <path class="cls-1" d="m40.41,52.84h-3.24c-.36,0-.7.09-1.01.27-.31.18-.55.42-.73.73-.18.31-.27.65-.27,1.01s.09.7.27,1.01c.18.31.42.55.73.73s.65.27,1.01.27h3.24s.05-.02.05-.05v-.67s-.02-.05-.05-.05h-3.24c-.34,0-.63-.12-.88-.37s-.37-.54-.37-.88c0-.23.06-.43.17-.62s.26-.34.45-.45.4-.17.62-.17h3.24s.05-.02.05-.05v-.67s-.02-.05-.05-.05Z"/>
    </g>
  </g>
</svg>