<?xml version="1.0" encoding="UTF-8"?>
<svg id="_图层_2" data-name="图层 2" xmlns="http://www.w3.org/2000/svg" viewBox="0 0 52.5 51.44">
  <defs>
    <style>
      .cls-1 {
        stroke-width: 0px;
      }
    </style>
  </defs>
  <g id="_图层_1-2" data-name="图层 1">
    <g>
      <path class="cls-1" d="m15.9,10.21h-1.64v3.14h1.64c4.89,0,8.86,3.97,8.86,8.86v13.93h2.98v-13.93c0-4.89,3.97-8.86,8.86-8.86h1.64v-3.14h-1.64c-4.89,0-8.86-3.97-8.86-8.86V0h-2.98v1.35c0,4.89-3.97,8.86-8.86,8.86Z"/>
      <path class="cls-1" d="m39.02,13.93c0,4.89-3.97,8.86-8.86,8.86h-1.64v3.14h1.64c4.89,0,8.86,3.97,8.86,8.86v1.35h2.98v-1.35c0-4.89,3.97-8.86,8.86-8.86h1.64v-3.14h-1.64c-4.89,0-8.86-3.97-8.86-8.86V0h-2.98v13.93Z"/>
      <path class="cls-1" d="m10.5,13.93c0,4.89-3.97,8.86-8.86,8.86H0v3.14h1.64c4.89,0,8.86,3.97,8.86,8.86v1.35h2.98v-1.35c0-4.89,3.97-8.86,8.86-8.86h1.64v-3.14h-1.64c-4.89,0-8.86-3.97-8.86-8.86V0h-2.98v13.93Z"/>
      <path class="cls-1" d="m.86,38.51v5.38c0,3.3,1.54,4.96,4.61,4.96s4.55-1.65,4.55-4.96v-5.38h-2.62v5.64c0,1.73-.64,2.6-1.92,2.6-.64,0-1.11-.2-1.42-.59-.32-.41-.47-1.08-.47-2.01v-5.64H.86Z"/>
      <path class="cls-1" d="m20.28,41.87h.06c.11.79.26,1.57.44,2.34l1.02,4.39h3.42l1.96-10.09h-2.57l-.75,4.61-.21,1.59c-.09.66-.16,1.2-.21,1.61h-.08c-.06-.28-.17-.82-.32-1.63l-.33-1.57-1.17-4.61h-2.3l-1.16,4.61c-.27,1.23-.5,2.29-.67,3.2h-.06l-.46-3.2-.72-4.61h-2.77l2.05,10.09h3.36l.99-4.39.46-2.34Z"/>
      <path class="cls-1" d="m36.15,42.88l-1.39-.5c-.63-.23-1.03-.39-1.21-.49-.31-.18-.46-.4-.46-.65,0-.55.44-.83,1.32-.83.78,0,1.54.26,2.29.78l1.33-1.53c-.98-.89-2.19-1.34-3.63-1.34-1.17,0-2.14.3-2.91.9-.76.58-1.14,1.3-1.14,2.17,0,1.31.75,2.24,2.26,2.78l1.42.55c.62.24,1,.4,1.15.49.28.17.42.39.42.65,0,.59-.48.89-1.45.89s-1.82-.35-2.7-1.04l-1.53,1.68c1.16.97,2.55,1.46,4.17,1.46,1.3,0,2.35-.32,3.15-.95.74-.6,1.11-1.34,1.11-2.22,0-1.32-.73-2.25-2.2-2.78Z"/>
      <polygon class="cls-1" points="47 48.56 47 40.43 50.09 40.48 50.09 38.45 41.3 38.45 41.3 40.48 44.38 40.48 44.38 48.6 47 48.56"/>
      <rect class="cls-1" x="11.56" y="47.44" width="1.21" height="1.21"/>
      <rect class="cls-1" x="27.75" y="47.44" width="1.21" height="1.21"/>
      <rect class="cls-1" x="39.3" y="47.44" width="1.21" height="1.21"/>
      <rect class="cls-1" x="50.94" y="47.44" width="1.21" height="1.21"/>
      <path class="cls-1" d="m1.15,50.61c0,.31-.1.46-.3.46-.1,0-.18-.03-.22-.1-.05-.07-.07-.19-.07-.36v-1H.11v.95c0,.58.24.88.73.88s.72-.29.72-.88v-.95h-.41v1Z"/>
      <path class="cls-1" d="m2.98,50.21c0,.1.02.32.06.66h-.01l-.18-.4-.45-.86h-.44v1.8h.41v-.6c0-.06-.02-.28-.06-.66h.01l.18.39.44.87h.44v-1.8h-.41v.6Z"/>
      <rect class="cls-1" x="3.8" y="49.61" width=".43" height="1.8"/>
      <polygon class="cls-1" points="4.51 49.97 5 49.97 5 51.41 5.43 51.41 5.43 49.97 5.91 49.97 5.91 49.61 4.51 49.61 4.51 49.97"/>
      <polygon class="cls-1" points="6.62 50.66 7.22 50.66 7.22 50.3 6.62 50.3 6.62 49.97 7.33 49.97 7.33 49.61 6.19 49.61 6.19 51.41 7.36 51.41 7.36 51.05 6.62 51.05 6.62 50.66"/>
      <path class="cls-1" d="m8.23,49.61h-.52v1.8h.54c.27,0,.49-.07.64-.22.16-.16.25-.38.25-.69s-.08-.53-.25-.68c-.16-.14-.38-.21-.66-.21Zm-.03,1.45h-.06v-1.1h.06c.16,0,.28.04.36.11.09.09.14.23.14.43,0,.37-.16.56-.49.56Z"/>
      <path class="cls-1" d="m11.5,50.43l-.03.28c-.01.12-.03.21-.03.29h-.01s-.03-.15-.05-.29l-.05-.28-.19-.82h-.36l-.18.82c-.04.22-.08.41-.11.57h0l-.07-.57-.11-.82h-.44l.33,1.8h.53l.16-.78.07-.42h0c.02.14.04.28.07.42l.16.78h.54l.31-1.8h-.41l-.12.82Z"/>
      <path class="cls-1" d="m13.01,49.58c-.25,0-.45.08-.6.24-.15.17-.23.39-.23.68s.08.52.23.69c.15.17.35.25.6.25s.45-.08.6-.25c.15-.17.23-.4.23-.69s-.08-.51-.23-.68c-.15-.16-.35-.24-.6-.24Zm.28,1.34c-.07.1-.16.15-.28.15s-.21-.05-.28-.15c-.07-.1-.1-.24-.1-.41s.03-.31.1-.41c.07-.1.16-.14.28-.14s.21.05.28.14c.07.1.1.24.1.41s-.03.31-.1.41Z"/>
      <path class="cls-1" d="m15.53,50.18c0-.38-.23-.57-.7-.57h-.66v1.8h.43v-.63h.21l.33.63h.48l-.4-.71c.21-.1.31-.27.31-.52Zm-.74.26h-.19v-.48h.19c.21,0,.32.07.32.22,0,.17-.11.26-.32.26Z"/>
      <polygon class="cls-1" points="17.29 49.61 16.82 49.61 16.31 50.32 16.31 50.32 16.31 49.61 15.87 49.61 15.87 51.41 16.31 51.41 16.31 50.94 16.5 50.67 16.93 51.41 17.4 51.41 16.75 50.33 17.29 49.61"/>
      <polygon class="cls-1" points="18.01 50.66 18.61 50.66 18.61 50.3 18.01 50.3 18.01 49.97 18.72 49.97 18.72 49.61 17.58 49.61 17.58 51.41 18.75 51.41 18.75 51.05 18.01 51.05 18.01 50.66"/>
      <path class="cls-1" d="m20.46,50.18c0-.38-.23-.57-.7-.57h-.66v1.8h.43v-.63h.21l.33.63h.48l-.4-.71c.21-.1.31-.27.31-.52Zm-.74.26h-.19v-.48h.19c.21,0,.32.07.32.22,0,.17-.11.26-.32.26Z"/>
      <path class="cls-1" d="m21.66,50.39l-.22-.09c-.1-.04-.17-.07-.2-.09-.05-.03-.07-.07-.07-.12,0-.1.07-.15.21-.15.13,0,.25.05.37.14l.21-.27c-.16-.16-.35-.24-.58-.24-.19,0-.34.05-.47.16-.12.1-.18.23-.18.38,0,.23.12.4.36.49l.23.1c.1.04.16.07.19.09.04.03.07.07.07.12,0,.1-.08.16-.23.16-.15,0-.29-.06-.43-.18l-.25.3c.19.17.41.26.67.26.21,0,.38-.06.51-.17.12-.11.18-.24.18-.39,0-.23-.12-.4-.35-.49Z"/>
      <path class="cls-1" d="m22.34,49.34c-.06,0-.11.02-.15.06-.04.04-.06.08-.06.13s.02.1.05.13c.03.04.07.06.13.06.01,0,.03,0,.04,0,0,.04-.02.08-.05.13-.04.06-.1.11-.17.14l.08.15c.23-.11.35-.28.35-.51,0-.08-.02-.14-.06-.2-.04-.05-.1-.08-.16-.08Z"/>
      <path class="cls-1" d="m24.4,50.39l-.22-.09c-.1-.04-.17-.07-.2-.09-.05-.03-.07-.07-.07-.12,0-.1.07-.15.21-.15.13,0,.25.05.37.14l.21-.27c-.16-.16-.35-.24-.58-.24-.19,0-.34.05-.47.16-.12.1-.18.23-.18.38,0,.23.12.4.36.49l.23.1c.1.04.16.07.19.09.04.03.07.07.07.12,0,.1-.08.16-.23.16-.15,0-.29-.06-.43-.18l-.25.3c.19.17.41.26.67.26.21,0,.38-.06.51-.17.12-.11.18-.24.18-.39,0-.23-.12-.4-.35-.49Z"/>
      <polygon class="cls-1" points="25.53 50.41 25.52 50.41 25.38 50.01 25.23 49.61 24.77 49.61 25.31 50.77 25.31 51.41 25.74 51.41 25.74 50.77 26.28 49.61 25.83 49.61 25.53 50.41"/>
      <path class="cls-1" d="m27.48,50.21c0,.1.02.32.06.66h-.01l-.18-.4-.45-.86h-.44v1.8h.41v-.6c0-.06-.02-.28-.06-.66h.01l.18.39.44.87h.44v-1.8h-.41v.6Z"/>
      <path class="cls-1" d="m28.82,49.61h-.52v1.8h.54c.27,0,.49-.07.64-.22.16-.16.25-.38.25-.69s-.08-.53-.25-.68c-.16-.14-.38-.21-.66-.21Zm-.03,1.45h-.06v-1.1h.06c.16,0,.28.04.36.11.09.09.14.23.14.43,0,.37-.16.56-.49.56Z"/>
      <rect class="cls-1" x="30.07" y="49.61" width=".43" height="1.8"/>
      <path class="cls-1" d="m31.69,51.07c-.13,0-.23-.05-.3-.15-.08-.1-.11-.24-.11-.41s.04-.31.13-.41c.08-.1.18-.15.3-.15.1,0,.21.05.31.14l.22-.27c-.15-.16-.33-.23-.54-.23-.24,0-.44.08-.6.25-.17.18-.26.41-.26.69s.08.52.25.69c.15.16.35.23.59.23s.43-.09.59-.27l-.23-.27c-.1.11-.22.16-.34.16Z"/>
      <path class="cls-1" d="m32.85,49.61l-.56,1.8h.44l.1-.41h.53l.1.41h.45l-.56-1.8h-.52Zm.07,1.05l.04-.15c.03-.11.07-.31.14-.58h0l.18.73h-.37Z"/>
      <polygon class="cls-1" points="33.76 49.97 34.25 49.97 34.25 51.41 34.68 51.41 34.68 49.97 35.17 49.97 35.17 49.61 33.76 49.61 33.76 49.97"/>
      <polygon class="cls-1" points="35.88 50.66 36.48 50.66 36.48 50.3 35.88 50.3 35.88 49.97 36.58 49.97 36.58 49.61 35.44 49.61 35.44 51.41 36.61 51.41 36.61 51.05 35.88 51.05 35.88 50.66"/>
      <path class="cls-1" d="m37.85,50.39l-.22-.09c-.1-.04-.17-.07-.2-.09-.05-.03-.07-.07-.07-.12,0-.1.07-.15.21-.15.13,0,.25.05.37.14l.21-.27c-.16-.16-.35-.24-.58-.24-.19,0-.34.05-.47.16-.12.1-.18.23-.18.38,0,.23.12.4.36.49l.23.1c.1.04.16.07.19.09.04.03.07.07.07.12,0,.1-.08.16-.23.16-.15,0-.29-.06-.43-.18l-.25.3c.19.17.41.26.67.26.21,0,.38-.06.51-.17.12-.11.18-.24.18-.39,0-.23-.12-.4-.35-.49Z"/>
      <path class="cls-1" d="m39.8,49.58c-.25,0-.45.08-.6.24-.15.17-.23.39-.23.68s.08.52.23.69c.15.17.35.25.6.25s.45-.08.6-.25c.15-.17.23-.4.23-.69s-.08-.51-.23-.68c-.15-.16-.35-.24-.6-.24Zm.28,1.34c-.07.1-.16.15-.28.15s-.21-.05-.28-.15c-.07-.1-.1-.24-.1-.41s.03-.31.1-.41c.07-.1.16-.14.28-.14s.21.05.28.14c.07.1.1.24.1.41s-.03.31-.1.41Z"/>
      <polygon class="cls-1" points="40.95 51.41 41.38 51.41 41.38 50.72 41.99 50.72 41.99 50.36 41.38 50.36 41.38 49.97 42.1 49.97 42.1 49.61 40.95 49.61 40.95 51.41"/>
      <polygon class="cls-1" points="44.22 49.61 42.82 49.61 42.82 49.97 43.31 49.97 43.31 51.41 43.74 51.41 43.74 49.97 44.22 49.97 44.22 49.61"/>
      <path class="cls-1" d="m44.72,49.61l-.56,1.8h.44l.1-.41h.53l.1.41h.45l-.56-1.8h-.52Zm.07,1.05l.04-.15c.03-.11.07-.31.14-.58h0l.18.73h-.37Z"/>
      <polygon class="cls-1" points="46.41 49.61 45.98 49.61 45.98 51.41 47.11 51.41 47.11 51.05 46.41 51.05 46.41 49.61"/>
      <path class="cls-1" d="m48.06,49.58c-.25,0-.45.08-.6.24-.15.17-.23.39-.23.68s.08.52.23.69c.15.17.35.25.6.25s.45-.08.6-.25c.15-.17.23-.4.23-.69s-.08-.51-.23-.68c-.15-.16-.35-.24-.6-.24Zm.28,1.34c-.07.1-.16.15-.28.15s-.21-.05-.28-.15c-.07-.1-.1-.24-.1-.41s.03-.31.1-.41c.07-.1.16-.14.28-.14s.21.05.28.14c.07.1.1.24.1.41s-.03.31-.1.41Z"/>
      <path class="cls-1" d="m50.1,50.39l-.22-.09c-.1-.04-.17-.07-.2-.09-.05-.03-.07-.07-.07-.12,0-.1.07-.15.21-.15.13,0,.25.05.37.14l.21-.27c-.16-.16-.35-.24-.58-.24-.19,0-.34.05-.47.16-.12.1-.18.23-.18.38,0,.23.12.4.36.49l.23.1c.1.04.16.07.19.09.04.03.07.07.07.12,0,.1-.08.16-.23.16-.15,0-.29-.06-.43-.18l-.25.3c.19.17.41.26.67.26.21,0,.38-.06.51-.17.12-.11.18-.24.18-.39,0-.23-.12-.4-.35-.49Z"/>
      <rect class="cls-1" x="51.96" y="49.6" width=".43" height="1.81"/>
      <rect class="cls-1" x="51.11" y="49.6" width=".43" height="1.81"/>
    </g>
  </g>
</svg>